<svg width="150" height="25" viewBox="0 0 150 25" fill="none" xmlns="http://www.w3.org/2000/svg">
<path d="M-0.00390625 3.86237C-0.00390625 2.14493 1.18441 0.867188 2.78165 0.867188C4.37889 0.867188 5.56721 2.14493 5.56721 3.86237C5.56721 5.57982 4.37889 6.85756 2.78165 6.85756C1.18441 6.85756 -0.00390625 5.57982 -0.00390625 3.86237Z" fill="black"/>
<path d="M4.95534 8.2627H0.604004V23.6746H4.95534V8.2627Z" fill="black"/>
<path d="M6.65771 15.8318C6.65771 10.6532 9.50269 8 13.7387 8C17.9747 8 20.8197 10.6194 20.8197 15.8318V23.8177H16.4683V15.8318C16.4683 13.3966 15.3674 12.3669 13.7422 12.3669C12.117 12.3669 11.016 13.3966 11.016 15.8318V23.8177H6.66471V15.8318H6.65771Z" fill="black"/>
<path d="M20.7041 8.40625H25.3735L28.5365 19.3573L31.6995 8.40625H36.2536L31.1194 23.8181H25.8383L20.7041 8.40625Z" fill="black"/>
<path d="M51.024 16.1138C51.024 11.435 47.9204 8.00391 43.3943 8.00391C38.8682 8.00391 35.6772 11.435 35.6772 16.1138C35.6772 20.7926 38.8682 24.2275 43.3943 24.2275C46.9628 24.2275 49.6924 22.1042 50.6186 18.9249H46.1205C45.5682 19.7667 44.6421 20.0485 43.3943 20.0485C41.8285 20.0485 40.5493 19.2368 40.2033 17.4292H51.0275V16.1176L51.024 16.1138ZM40.2872 14.4603C40.7241 12.9007 41.8845 12.1829 43.3908 12.1829C44.8972 12.1829 46.061 12.8706 46.5538 14.4603H40.2872Z" fill="black"/>
<path d="M52.1246 19.1391H56.42C56.448 19.9508 57.0002 20.3567 58.1885 20.3567C59.5236 20.3567 59.957 19.8569 59.957 19.203C59.957 18.1733 58.912 18.0793 57.5769 17.8613C55.6022 17.5494 52.3553 17.0195 52.3553 13.3066C52.3553 10.1873 54.648 8.00391 58.2165 8.00391C61.7849 8.00391 63.9903 10.2174 64.0777 12.9946H59.8417C59.7263 12.2768 59.1461 11.871 58.2759 11.871C57.2029 11.871 56.766 12.4647 56.766 13.0886C56.766 14.0243 57.811 14.1484 59.1461 14.3663C61.2047 14.6782 64.3677 15.272 64.3677 18.9211C64.3677 22.1042 61.9317 24.2238 58.2444 24.2238C54.5571 24.2238 52.1805 22.1005 52.1211 19.1391H52.1246Z" fill="black"/>
<path d="M66.0527 17.7333V2.94531H70.4041V8.4058H77.195V12.6186H70.4041V17.7371C70.4041 19.3606 71.0996 19.8567 72.0572 19.8567C73.0149 19.8567 73.7104 19.3568 73.7104 17.7371V17.2673H78.0617V17.7371C78.0617 22.1378 75.6257 24.2273 72.0572 24.2273C68.4888 24.2273 66.0527 22.1378 66.0527 17.7371V17.7333Z" fill="black"/>
<path d="M79.5713 16.1138C79.5713 11.435 82.7623 8.00391 87.2884 8.00391C91.2622 8.00391 94.1666 10.6571 94.7748 14.4603H90.364C89.8712 13.1825 88.7388 12.3708 87.2884 12.3708C85.3172 12.3708 83.982 13.9003 83.982 16.1138C83.982 18.3273 85.3172 19.8569 87.2884 19.8569C88.7388 19.8569 89.8712 19.0451 90.364 17.7674H94.7748C94.1666 21.5743 91.2622 24.2275 87.2884 24.2275C82.7623 24.2275 79.5713 20.7964 79.5713 16.1138Z" fill="#C63663"/>
<path d="M100.636 1.66797V23.8181H96.2847V6.34677C96.2847 3.76122 98.2314 1.66797 100.636 1.66797Z" fill="#C63663"/>
<path d="M109.923 8C105.397 8 102.206 11.4311 102.206 16.1099C102.206 20.7887 105.397 24.2236 109.923 24.2236C114.449 24.2236 117.64 20.7925 117.64 16.1099C117.64 11.4274 114.449 8 109.923 8ZM109.923 19.8567C107.951 19.8567 106.616 18.3272 106.616 16.1137C106.616 13.9002 107.951 12.3706 109.923 12.3706C111.894 12.3706 113.229 13.9002 113.229 16.1137C113.229 18.3272 111.894 19.8567 109.923 19.8567Z" fill="#C63663"/>
<path d="M119.051 16.3922V8.40625H123.403V16.3922C123.403 18.8274 124.504 19.8534 126.129 19.8534C127.754 19.8534 128.855 18.8236 128.855 16.3922V8.40625H133.206V16.3922C133.206 21.5708 130.361 24.224 126.125 24.224C121.889 24.224 119.044 21.6046 119.044 16.3922H119.051Z" fill="#C63663"/>
<path d="M144.335 19.1919C143.797 19.6165 143.122 19.8571 142.343 19.8571C140.983 19.8571 139.927 19.1318 139.4 17.9517C139.159 17.4181 139.026 16.7867 139.026 16.0915C139.026 13.878 140.361 12.3484 142.332 12.3484C143.783 12.3484 144.915 13.1602 145.408 14.4379H150V6.34677C150 3.76122 148.053 1.66797 145.649 1.66797V10.0936C144.751 8.72188 143.3 8.00409 141.588 8.00409C138.337 8.00409 134.625 10.5633 134.625 15.9299C134.625 20.8905 137.816 24.2277 142.374 24.2277C146.226 24.2277 149.2 21.8413 149.864 17.7488H145.411C145.181 18.3463 144.814 18.8386 144.338 19.1956L144.335 19.1919Z" fill="#C63663"/>
</svg>
